<svg width="20" height="22" viewBox="0 0 20 22" fill="none" xmlns="http://www.w3.org/2000/svg">
<path d="M6.64298 2.14559L4.93816 2.93362C2.31272 4.14719 1 4.75397 1 5.75C1 6.74603 2.31272 7.35281 4.93817 8.56638L6.64298 9.35441C8.29524 10.1181 9.12137 10.5 10 10.5C10.8786 10.5 11.7048 10.1181 13.357 9.35441L15.0618 8.56638C17.6873 7.35281 19 6.74603 19 5.75C19 4.75397 17.6873 4.14719 15.0618 2.93362L13.357 2.14559C11.7048 1.38186 10.8786 1 10 1C9.12137 1 8.29524 1.38186 6.64298 2.14559Z" stroke="#667084" stroke-width="2" stroke-linecap="round" stroke-linejoin="round"/>
<path d="M18.788 10.0972C18.9293 10.2959 19 10.5031 19 10.7309C19 11.7127 17.6873 12.3109 15.0618 13.5072L13.357 14.284C11.7048 15.0368 10.8786 15.4133 10 15.4133C9.12137 15.4133 8.29524 15.0368 6.64298 14.284L4.93817 13.5072C2.31272 12.3109 1 11.7127 1 10.7309C1 10.5031 1.07067 10.2959 1.212 10.0972" stroke="#667084" stroke-width="2" stroke-linecap="round" stroke-linejoin="round"/>
<path d="M18.3767 15.2661C18.7922 15.5971 19 15.927 19 16.3176C19 17.2995 17.6873 17.8976 15.0618 19.0939L13.357 19.8707C11.7048 20.6236 10.8786 21 10 21C9.12137 21 8.29524 20.6236 6.64298 19.8707L4.93817 19.0939C2.31272 17.8976 1 17.2995 1 16.3176C1 15.927 1.20778 15.5971 1.62334 15.2661" stroke="#667084" stroke-width="2" stroke-linecap="round" stroke-linejoin="round"/>
</svg>
