<svg width="20" height="19" viewBox="0 0 20 19" fill="none" xmlns="http://www.w3.org/2000/svg">
<path d="M7.5 12C7.5 9.64298 7.5 8.46447 8.23223 7.73223C8.96447 7 10.143 7 12.5 7L13.3333 7C15.6904 7 16.8689 7 17.6011 7.73223C18.3333 8.46447 18.3333 9.64298 18.3333 12V12.8333C18.3333 15.1904 18.3333 16.3689 17.6011 17.1011C16.8689 17.8333 15.6904 17.8333 13.3333 17.8333H12.5C10.143 17.8333 8.96447 17.8333 8.23223 17.1011C7.5 16.3689 7.5 15.1904 7.5 12.8333L7.5 12Z" stroke="#475466" stroke-width="1.5" stroke-linecap="round" stroke-linejoin="round"/>
<path d="M14.1666 6.99984C14.1646 4.53559 14.1273 3.25918 13.4101 2.38519C13.2715 2.21641 13.1168 2.06165 12.948 1.92314C12.026 1.1665 10.6563 1.1665 7.91669 1.1665C5.17712 1.1665 3.80734 1.1665 2.88538 1.92314C2.7166 2.06165 2.56183 2.21641 2.42332 2.38519C1.66669 3.30715 1.66669 4.67694 1.66669 7.4165C1.66669 10.1561 1.66669 11.5259 2.42332 12.4478C2.56183 12.6166 2.7166 12.7714 2.88538 12.9099C3.75936 13.6271 5.03578 13.6645 7.50002 13.6664" stroke="#475466" stroke-width="1.5" stroke-linecap="round" stroke-linejoin="round"/>
</svg>
