<svg width="24" height="24" viewBox="0 0 24 24" fill="none" xmlns="http://www.w3.org/2000/svg">
<path d="M15.2189 14.9283L15.926 15.6355L15.2189 14.9283ZM15.9998 10.1506L14.9998 10.1463V10.1506H15.9998ZM15.3335 9.87322L16.0404 10.5805L16.0404 10.5805L15.3335 9.87322ZM13.4767 11.7292L12.7698 11.0219L12.7698 11.0219L13.4767 11.7292ZM11.7703 11.7291L12.4773 11.0219L11.7703 11.7291ZM8.57184 8.28095L9.27889 8.98811H9.27889L8.57184 8.28095ZM13.3503 7.50018V8.50019L13.3546 8.50018L13.3503 7.50018ZM13.6277 8.16638L14.3349 8.87346L14.3349 8.87345L13.6277 8.16638ZM11.7715 10.0228L11.0644 9.3157L11.0643 9.31571L11.7715 10.0228ZM2.56682 18.1963L3.27393 18.9034L3.27395 18.9034L2.56682 18.1963ZM5.30366 20.9332L6.01077 21.6403L6.01082 21.6402L5.30366 20.9332ZM7.78983 12.1447L6.78984 12.1421L7.78983 12.1447ZM7.20389 13.559L7.91102 14.2661L7.20389 13.559ZM7.71217 12.9437L6.78877 12.5599L7.71217 12.9437ZM11.3544 15.7102L11.3569 16.7102L11.3544 15.7102ZM9.93994 16.2962L9.23278 15.5892L9.93994 16.2962ZM10.5552 15.7878L10.1713 14.8645L10.5552 15.7878ZM11.3544 15.7102L11.3569 16.7102C12.2902 16.7078 13.1558 16.6925 13.8883 16.5718C14.629 16.4498 15.3596 16.2017 15.926 15.6355L15.2189 14.9283L14.5119 14.2211C14.3643 14.3686 14.1051 14.5091 13.5632 14.5984C13.0131 14.689 12.3034 14.7077 11.3519 14.7102L11.3544 15.7102ZM15.2189 14.9283L15.926 15.6355C16.1534 15.408 16.383 15.1532 16.5624 14.8237C16.7461 14.4866 16.8458 14.1308 16.9041 13.7301C17.0111 12.9952 16.9998 11.9 16.9998 10.1506H15.9998H14.9998C14.9998 12.0058 15.005 12.8926 14.925 13.4419C14.8898 13.6833 14.8452 13.7953 14.8061 13.867C14.7628 13.9464 14.6913 14.0417 14.5119 14.2211L15.2189 14.9283ZM15.9998 10.1506L16.9998 10.1549C17.0051 8.91168 15.503 8.28987 14.6265 9.16596L15.3335 9.87322L16.0404 10.5805C15.6568 10.964 14.9975 10.6928 14.9998 10.1463L15.9998 10.1506ZM15.3335 9.87322L14.6265 9.16596L12.7698 11.0219L13.4767 11.7292L14.1837 12.4364L16.0404 10.5805L15.3335 9.87322ZM13.4767 11.7292L12.7698 11.0219C12.689 11.1026 12.5581 11.1026 12.4773 11.0219L11.7703 11.7291L11.0632 12.4362C11.9249 13.2978 13.3219 13.2979 14.1837 12.4364L13.4767 11.7292ZM7.78983 12.1447L8.78983 12.1472C8.79225 11.1963 8.811 10.4868 8.90165 9.93667C8.99097 9.39471 9.13148 9.1355 9.27889 8.98811L8.57184 8.28095L7.86479 7.57378C7.2984 8.14008 7.05031 8.87091 6.92827 9.61147C6.80757 10.3439 6.79221 11.2094 6.78984 12.1421L7.78983 12.1447ZM8.57184 8.28095L9.27889 8.98811C9.45832 8.80871 9.55361 8.73717 9.63305 8.69391C9.70485 8.65482 9.81686 8.61015 10.0584 8.575C10.6078 8.49502 11.4948 8.50018 13.3503 8.50018V7.50018V6.50018C11.6006 6.50018 10.5053 6.48888 9.77029 6.59585C9.36954 6.65418 9.01377 6.75385 8.67662 6.93743C8.34711 7.11685 8.09228 7.34633 7.86479 7.57378L8.57184 8.28095ZM13.3503 7.50018L13.3546 8.50018C12.8088 8.50251 12.5364 7.84351 12.9206 7.45931L13.6277 8.16638L14.3349 8.87345C15.2117 7.99655 14.5886 6.49487 13.346 6.50019L13.3503 7.50018ZM13.6277 8.16638L12.9206 7.4593L11.0644 9.3157L11.7715 10.0228L12.4786 10.7299L14.3349 8.87346L13.6277 8.16638ZM11.7715 10.0228L11.0643 9.31571C10.2041 10.176 10.2 11.5731 11.0632 12.4362L11.7703 11.7291L12.4773 11.0219C12.3981 10.9427 12.3965 10.812 12.4786 10.7298L11.7715 10.0228ZM2.56682 20.9332L3.27393 20.2261C2.90869 19.8608 2.90869 19.2687 3.27393 18.9034L2.56682 18.1963L1.85971 17.4892C0.71343 18.6355 0.713429 20.494 1.85971 21.6403L2.56682 20.9332ZM5.30366 20.9332L4.59655 20.2261C4.23132 20.5913 3.63916 20.5913 3.27393 20.2261L2.56682 20.9332L1.85971 21.6403C3.00599 22.7866 4.86448 22.7866 6.01077 21.6403L5.30366 20.9332ZM9.93994 16.2962L9.23278 15.5892L4.5965 20.2261L5.30366 20.9332L6.01082 21.6402L10.6471 17.0033L9.93994 16.2962ZM2.56682 18.1963L3.27395 18.9034L7.91102 14.2661L7.20389 13.559L6.49676 12.8519L1.85969 17.4893L2.56682 18.1963ZM7.78983 12.1447L6.78984 12.1421C6.78928 12.362 6.78835 12.4725 6.78216 12.552C6.77722 12.6154 6.77244 12.5992 6.78877 12.5599L7.71217 12.9437L8.63556 13.3276C8.80555 12.9187 8.78899 12.4755 8.78983 12.1472L7.78983 12.1447ZM7.20389 13.559L7.91102 14.2661C8.14163 14.0355 8.46568 13.7363 8.63556 13.3276L7.71217 12.9437L6.78877 12.5599C6.80481 12.5213 6.8195 12.5132 6.77901 12.5603C6.72778 12.62 6.65115 12.6975 6.49676 12.8519L7.20389 13.559ZM11.3544 15.7102L11.3519 14.7102C11.0235 14.711 10.5803 14.6944 10.1713 14.8645L10.5552 15.7878L10.9391 16.7112C10.8998 16.7276 10.8836 16.7228 10.9471 16.7178C11.0265 16.7117 11.137 16.7107 11.3569 16.7102L11.3544 15.7102ZM9.93994 16.2962L10.6471 17.0033C10.8015 16.8489 10.8791 16.7722 10.9387 16.721C10.9858 16.6805 10.9777 16.6952 10.9391 16.7112L10.5552 15.7878L10.1713 14.8645C9.76261 15.0344 9.46342 15.3585 9.23278 15.5892L9.93994 16.2962Z" fill="#667084"/>
<path d="M8.73047 21.4999C10.0226 19.299 12.9819 19.0395 14.6673 20.7213C15.0441 21.0973 15.2325 21.2854 15.3996 21.3079C15.5667 21.3304 15.7528 21.2247 16.125 21.0134L17.8497 20.0341C18.2291 19.8188 18.4187 19.7111 18.4848 19.5548C18.5509 19.3985 18.4817 19.1321 18.3433 18.5992C17.8399 16.6616 19.0606 14.6225 21.011 14.0965C21.5329 13.9558 21.7938 13.8854 21.8969 13.7508C22 13.6163 22 13.3998 22 12.9669V11.0332C22 10.6003 22 10.3838 21.8969 10.2492C21.7938 10.1147 21.5329 10.0443 21.011 9.9036C19.0603 9.37763 17.8386 7.3385 18.3418 5.4008C18.4801 4.86787 18.5493 4.6014 18.4832 4.44515C18.4171 4.28891 18.2275 4.18123 17.8482 3.96587L16.1235 2.98663C15.7512 2.77529 15.5651 2.66962 15.3981 2.69212C15.231 2.71463 15.0426 2.90263 14.6657 3.27864C13.2064 4.73442 10.792 4.73448 9.33276 3.27873C8.95585 2.90273 8.76739 2.71472 8.60035 2.69222C8.4333 2.66972 8.24718 2.77539 7.87495 2.98673L6.15025 3.96596C5.77092 4.18134 5.58126 4.28902 5.51516 4.44529C5.44907 4.60156 5.51829 4.86799 5.65672 5.40087C6.16008 7.33851 4.9394 9.37759 2.98902 9.90358C2.46711 10.0443 2.20615 10.1147 2.10308 10.2493C2 10.3838 2 10.6003 2 11.0332V12.9669C2 13.3998 2 13.6163 2.10308 13.7509C2.20617 13.8855 2.467 13.9558 2.98866 14.0964C2.99478 14.0981 3.00089 14.0998 3.007 14.1014" stroke="#667084" stroke-width="2" stroke-linecap="round"/>
</svg>
