<svg width="24" height="24" viewBox="0 0 24 24" fill="none" xmlns="http://www.w3.org/2000/svg">
<path d="M19.2929 3.29289C18.9024 3.68342 18.9024 4.31658 19.2929 4.70711C19.6834 5.09763 20.3166 5.09763 20.7071 4.70711L19.2929 3.29289ZM22.7071 2.70711C23.0976 2.31658 23.0976 1.68342 22.7071 1.29289C22.3166 0.902369 21.6834 0.902369 21.2929 1.29289L22.7071 2.70711ZM22 2L21.2929 1.29289L19.2929 3.29289L20 4L20.7071 4.70711L22.7071 2.70711L22 2Z" fill="#667084"/>
<path d="M19.4967 11.7619L18.7896 11.0548L18.7896 11.0548L19.4967 11.7619ZM16.5933 12.4877L17.3004 11.7806L16.5933 12.4877ZM18.7708 12.4877L19.4779 13.1949V13.1948L18.7708 12.4877ZM11.5123 5.22916L10.8051 4.52205L10.8051 4.52205L11.5123 5.22916ZM11.5123 7.40674L10.8051 8.11384L11.5123 7.40674ZM12.2381 4.5033L12.9452 5.21041V5.21041L12.2381 4.5033ZM12.2381 4.5033L11.531 3.7962L10.8051 4.52205L11.5123 5.22916L12.2194 5.93627L12.9452 5.21041L12.2381 4.5033ZM11.5123 7.40674L10.8051 8.11384L15.8862 13.1949L16.5933 12.4877L17.3004 11.7806L12.2194 6.69963L11.5123 7.40674ZM18.7708 12.4877L19.4779 13.1948L20.2038 12.469L19.4967 11.7619L18.7896 11.0548L18.0637 11.7806L18.7708 12.4877ZM19.4967 11.7619L20.2038 12.469C22.5987 10.0741 22.5987 6.19112 20.2038 3.7962L19.4967 4.5033L18.7896 5.21041C20.4035 6.82429 20.4035 9.4409 18.7896 11.0548L19.4967 11.7619ZM12.2381 4.5033L12.9452 5.21041C14.5591 3.59653 17.1757 3.59653 18.7896 5.21041L19.4967 4.5033L20.2038 3.7962C17.8089 1.40127 13.9259 1.40127 11.531 3.7962L12.2381 4.5033ZM11.5123 7.40674L12.2194 6.69963C12.0236 6.50387 12.0008 6.37113 12 6.31968C11.9994 6.27489 12.0123 6.14331 12.2194 5.93627L11.5123 5.22916L10.8051 4.52205C10.308 5.01924 9.99018 5.64571 10.0002 6.34829C10.0102 7.04421 10.3395 7.64815 10.8051 8.11384L11.5123 7.40674ZM18.7708 12.4877L18.0637 11.7806C17.868 11.9764 17.7352 11.9992 17.6838 12C17.639 12.0006 17.5074 11.9877 17.3004 11.7806L16.5933 12.4877L15.8862 13.1949C16.3833 13.692 17.0098 14.0098 17.7124 13.9998C18.4083 13.9898 19.0123 13.6605 19.4779 13.1949L18.7708 12.4877Z" fill="#667084"/>
<path d="M4.70711 20.7071C5.09763 20.3166 5.09763 19.6834 4.70711 19.2929C4.31658 18.9024 3.68342 18.9024 3.29289 19.2929L4.70711 20.7071ZM1.29289 21.2929C0.902369 21.6834 0.902369 22.3166 1.29289 22.7071C1.68342 23.0976 2.31658 23.0976 2.70711 22.7071L1.29289 21.2929ZM4 20L3.29289 19.2929L1.29289 21.2929L2 22L2.70711 22.7071L4.70711 20.7071L4 20Z" fill="#667084"/>
<path d="M12.4877 16.5933L11.7806 17.3004L12.4877 16.5933ZM5.22916 11.5123L4.52205 10.8051L4.52205 10.8051L5.22916 11.5123ZM7.40674 11.5123L8.11384 10.8051L7.40674 11.5123ZM4.5033 12.2381L5.21041 12.9452L5.21041 12.9452L4.5033 12.2381ZM4.5033 12.2381L5.21041 12.9452L5.93627 12.2194L5.22916 11.5123L4.52205 10.8051L3.79619 11.531L4.5033 12.2381ZM7.40674 11.5123L6.69963 12.2194L11.7806 17.3004L12.4877 16.5933L13.1949 15.8862L8.11384 10.8051L7.40674 11.5123ZM12.4877 18.7708L11.7806 18.0637L11.0548 18.7896L11.7619 19.4967L12.469 20.2038L13.1949 19.4779L12.4877 18.7708ZM11.7619 19.4967L11.0548 18.7896C9.4409 20.4035 6.82429 20.4035 5.21041 18.7896L4.5033 19.4967L3.7962 20.2038C6.19112 22.5987 10.0741 22.5987 12.469 20.2038L11.7619 19.4967ZM4.5033 12.2381L3.7962 11.531C1.40127 13.9259 1.40127 17.8089 3.7962 20.2038L4.5033 19.4967L5.21041 18.7896C3.59653 17.1757 3.59653 14.5591 5.21041 12.9452L4.5033 12.2381ZM7.40674 11.5123L8.11384 10.8051C7.64815 10.3395 7.04421 10.0102 6.34829 10.0002C5.64571 9.99018 5.01924 10.308 4.52205 10.8051L5.22916 11.5123L5.93627 12.2194C6.14331 12.0123 6.27489 11.9994 6.31968 12C6.37113 12.0008 6.50387 12.0236 6.69963 12.2194L7.40674 11.5123ZM12.4877 18.7708L13.1949 19.4779C13.6605 19.0123 13.9898 18.4083 13.9998 17.7124C14.0098 17.0098 13.692 16.3833 13.1949 15.8862L12.4877 16.5933L11.7806 17.3004C11.9877 17.5074 12.0006 17.639 12 17.6838C11.9992 17.7352 11.9764 17.868 11.7806 18.0637L12.4877 18.7708Z" fill="#667084"/>
<path d="M9.79289 8.79289C9.40237 9.18342 9.40237 9.81658 9.79289 10.2071C10.1834 10.5976 10.8166 10.5976 11.2071 10.2071L9.79289 8.79289ZM12.7071 8.70711C13.0976 8.31658 13.0976 7.68342 12.7071 7.29289C12.3166 6.90237 11.6834 6.90237 11.2929 7.29289L12.7071 8.70711ZM13.7929 12.7929C13.4024 13.1834 13.4024 13.8166 13.7929 14.2071C14.1834 14.5976 14.8166 14.5976 15.2071 14.2071L13.7929 12.7929ZM16.7071 12.7071C17.0976 12.3166 17.0976 11.6834 16.7071 11.2929C16.3166 10.9024 15.6834 10.9024 15.2929 11.2929L16.7071 12.7071ZM10.5 9.5L11.2071 10.2071L12.7071 8.70711L12 8L11.2929 7.29289L9.79289 8.79289L10.5 9.5ZM14.5 13.5L15.2071 14.2071L16.7071 12.7071L16 12L15.2929 11.2929L13.7929 12.7929L14.5 13.5Z" fill="#667084"/>
</svg>
