<svg width="18" height="19" viewBox="0 0 18 19" fill="none" xmlns="http://www.w3.org/2000/svg">
<path d="M12.3333 4.50008V3.83341C12.3333 2.89999 12.3333 2.43328 12.1517 2.07676C11.9919 1.76316 11.7369 1.50819 11.4233 1.3484C11.0668 1.16675 10.6001 1.16675 9.66667 1.16675H8.33333C7.39991 1.16675 6.9332 1.16675 6.57668 1.3484C6.26308 1.50819 6.00811 1.76316 5.84832 2.07676C5.66667 2.43328 5.66667 2.89999 5.66667 3.83341V4.50008M7.33333 9.08342V13.2501M10.6667 9.08342V13.2501M1.5 4.50008H16.5M14.8333 4.50008V13.8334C14.8333 15.2335 14.8333 15.9336 14.5608 16.4684C14.3212 16.9388 13.9387 17.3212 13.4683 17.5609C12.9335 17.8334 12.2335 17.8334 10.8333 17.8334H7.16667C5.76654 17.8334 5.06647 17.8334 4.53169 17.5609C4.06129 17.3212 3.67883 16.9388 3.43915 16.4684C3.16667 15.9336 3.16667 15.2335 3.16667 13.8334V4.50008" stroke="#475467" stroke-width="1.66667" stroke-linecap="round" stroke-linejoin="round"/>
</svg>
