<svg width="20" height="19" viewBox="0 0 20 19" fill="none" xmlns="http://www.w3.org/2000/svg">
<path d="M9.16669 2.83332H5.66669C4.26656 2.83332 3.56649 2.83332 3.03171 3.1058C2.56131 3.34549 2.17885 3.72794 1.93917 4.19834C1.66669 4.73312 1.66669 5.43319 1.66669 6.83332V13.8333C1.66669 15.2335 1.66669 15.9335 1.93917 16.4683C2.17885 16.9387 2.56131 17.3212 3.03171 17.5608C3.56649 17.8333 4.26656 17.8333 5.66669 17.8333H12.6667C14.0668 17.8333 14.7669 17.8333 15.3017 17.5608C15.7721 17.3212 16.1545 16.9387 16.3942 16.4683C16.6667 15.9335 16.6667 15.2335 16.6667 13.8333V10.3333M6.66666 12.8333H8.06212C8.46977 12.8333 8.67359 12.8333 8.86541 12.7873C9.03547 12.7464 9.19804 12.6791 9.34716 12.5877C9.51536 12.4847 9.65948 12.3405 9.94773 12.0523L17.9167 4.08332C18.607 3.39296 18.607 2.27368 17.9167 1.58332C17.2263 0.892963 16.107 0.892962 15.4167 1.58332L7.44772 9.55227C7.15946 9.84052 7.01534 9.98465 6.91227 10.1528C6.82088 10.302 6.75354 10.4645 6.71271 10.6346C6.66666 10.8264 6.66666 11.0302 6.66666 11.4379V12.8333Z" stroke="#475466" stroke-width="1.5" stroke-linecap="round" stroke-linejoin="round"/>
</svg>
