<svg width="40" height="41" viewBox="0 0 40 41" fill="none" xmlns="http://www.w3.org/2000/svg">
<path d="M4 4.5C4 2.29086 5.79086 0.5 8 0.5H24L36 12.5V36.5C36 38.7091 34.2091 40.5 32 40.5H8C5.79086 40.5 4 38.7091 4 36.5V4.5Z" fill="#079455"/>
<path opacity="0.3" d="M24 0.5L36 12.5H28C25.7909 12.5 24 10.7091 24 8.5V0.5Z" fill="white"/>
<path d="M13.1477 25.9545L14.4677 28.1854H14.5188L15.8452 25.9545H17.408L15.4105 29.2273L17.4528 32.5H15.8612L14.5188 30.266H14.4677L13.1254 32.5H11.5401L13.5888 29.2273L11.5785 25.9545H13.1477ZM18.2837 32.5V25.9545H19.6676V31.359H22.4737V32.5H18.2837ZM26.941 27.837C26.9154 27.5792 26.8057 27.3789 26.6118 27.2362C26.4179 27.0934 26.1547 27.022 25.8224 27.022C25.5965 27.022 25.4058 27.054 25.2503 27.1179C25.0947 27.1797 24.9754 27.266 24.8923 27.3768C24.8113 27.4876 24.7709 27.6133 24.7709 27.7539C24.7666 27.8711 24.7911 27.9734 24.8444 28.0607C24.8998 28.1481 24.9754 28.2237 25.0713 28.2876C25.1672 28.3494 25.278 28.4038 25.4037 28.4506C25.5294 28.4954 25.6636 28.5337 25.8064 28.5657L26.3944 28.7063C26.68 28.7702 26.942 28.8555 27.1807 28.962C27.4193 29.0685 27.626 29.1996 27.8007 29.3551C27.9754 29.5107 28.1107 29.6939 28.2066 29.9048C28.3046 30.1158 28.3547 30.3576 28.3568 30.6303C28.3547 31.0309 28.2524 31.3782 28.05 31.6722C27.8497 31.9641 27.5599 32.1911 27.1807 32.353C26.8035 32.5128 26.3486 32.5927 25.816 32.5927C25.2876 32.5927 24.8273 32.5117 24.4353 32.3498C24.0454 32.1879 23.7407 31.9482 23.5212 31.6307C23.3039 31.3111 23.1899 30.9158 23.1792 30.445H24.5184C24.5333 30.6644 24.5961 30.8477 24.7069 30.9947C24.8199 31.1396 24.9701 31.2493 25.1576 31.3239C25.3472 31.3963 25.5613 31.4325 25.8 31.4325C26.0344 31.4325 26.2378 31.3984 26.4104 31.3303C26.5851 31.2621 26.7204 31.1673 26.8163 31.0458C26.9122 30.9244 26.9601 30.7848 26.9601 30.6271C26.9601 30.4801 26.9165 30.3565 26.8291 30.2564C26.7439 30.1562 26.6182 30.071 26.452 30.0007C26.2879 29.9304 26.0866 29.8665 25.8479 29.8089L25.1352 29.63C24.5834 29.4957 24.1476 29.2859 23.828 29.0004C23.5084 28.7148 23.3497 28.3303 23.3518 27.8466C23.3497 27.4503 23.4552 27.104 23.6682 26.8079C23.8834 26.5117 24.1785 26.2805 24.5535 26.1143C24.9285 25.9482 25.3547 25.8651 25.8319 25.8651C26.3177 25.8651 26.7417 25.9482 27.104 26.1143C27.4683 26.2805 27.7517 26.5117 27.9541 26.8079C28.1565 27.104 28.2609 27.4471 28.2673 27.837H26.941Z" fill="white"/>
</svg>
