<?xml version="1.0" encoding="utf-8"?>
<!-- Generator: Adobe Illustrator 24.0.0, SVG Export Plug-In . SVG Version: 6.00 Build 0)  -->
<svg version="1.1" id="cytiva_logo" xmlns="http://www.w3.org/2000/svg" xmlns:xlink="http://www.w3.org/1999/xlink" x="0px"
	 y="0px" viewBox="0 0 288 79.8" style="enable-background:new 0 0 288 79.8;" xml:space="preserve">
<style type="text/css">
	.st0{fill:#00886F;}
</style>
<title>cytiva</title>
<path d="M118.5,50.4c-2.1,0.1-4.1-1-5-2.9c-1-2.4-1.5-5.1-1.4-7.7c-0.1-2.6,0.4-5.3,1.5-7.7c0.9-1.9,2.9-3,4.9-2.9
	c1.3-0.1,2.5,0.4,3.4,1.3c0.8,1,1.4,2.1,1.6,3.4h10.2c-0.4-4-2.3-7.7-5.5-10.2c-2.8-2-6.3-3-9.8-2.8c-5.3,0-9.5,1.8-12.6,5.2
	s-4.6,8.2-4.6,14.1s1.5,10.5,4.4,13.8s7.1,5,12.5,5c4.4,0,7.9-1.1,10.5-3.3s4.2-5.3,5-9.4h-10c-0.3,1.2-0.9,2.3-1.8,3.1
	C121,50.1,119.8,50.5,118.5,50.4z"/>
<path d="M196.2,56.9l-1.4-7.7c-0.8,0.2-1.7,0.4-2.5,0.6c-1,0.2-2,0.2-2.9,0.2c-3,0-4.5-1.6-4.5-4.8V30.1h10.4v-8.2h-10.4v-8.6h-10.5
	v31.6c0,2.4,0.3,4.8,1,7.1c0.6,2,1.9,3.6,3.6,4.8c1.7,1.1,4.2,1.7,7.5,1.7c1.8,0,3.5-0.1,5.2-0.4C193.2,57.8,194.7,57.4,196.2,56.9z
	"/>
<path d="M201.1,28.8v29h10.6V21.9H208C204.2,21.9,201.1,25,201.1,28.8z"/>
<polygon points="241.7,21.9 234.2,47.9 226.8,21.9 215.5,21.9 228.4,57.8 239.7,57.8 252.7,21.9 "/>
<path d="M145.2,21.9h-11l14.3,32.6l0,0c0,0-0.6,2-0.9,2.9c-0.1,0.6-0.5,1.1-0.9,1.4l-0.3,0.2c-0.9,0.7-2,1.1-3.1,1
	c-0.6,0-1.2,0-1.7-0.1c-0.7-0.1-1.5-0.3-2.2-0.5l-1.6,7.5c2.3,0.8,4.8,1.2,7.2,1.2c1.9,0.1,3.9-0.4,5.6-1.3c1.5-1,2.8-2.3,3.7-3.9
	c1.9-3.2,15.6-38.7,16.5-41h-10.7L153.1,44L145.2,21.9z"/>
<path d="M277.4,25.3l-0.1-0.2c-1-1.5-2.5-2.7-4.2-3.4c-1.4-0.6-2.9-0.9-4.4-0.9c-0.2,0-0.5,0-0.8,0c-4,0.3-7.7,2.1-10.4,5.1
	c-3,3.5-4.6,8.2-4.6,14.1s1.5,10.5,4.4,13.8c1.4,1.6,3.1,2.9,5.1,3.7c1.5,0.7,3.1,1.1,4.7,1.1c1,0,2.5-0.2,2.5-0.2
	c3.1-0.5,5.8-2.2,7.6-4.7l0.1-0.2v4.3H288V21.9h-10.6V25.3z M278,40.7c0,1.5-0.1,2.9-0.5,4.3c-0.3,1.3-1,2.5-1.8,3.5
	c-0.6,0.7-1.3,1.2-2.1,1.6c-0.9,0.4-1.9,0.6-2.9,0.6c-2,0-3.8-0.9-5.1-2.5c-1.4-1.6-2.1-4.4-2.1-8.2s0.7-6.4,2-8.1
	c1.2-1.7,3.2-2.6,5.3-2.6c1.8-0.1,3.5,0.7,4.7,2c0.8,1,1.4,2.1,1.8,3.2c0.5,1.6,0.7,3.3,0.6,5L278,40.7z"/>
<path d="M206.4,6.9c-3.4,0-6.1,2.7-6.1,6.1c0,3.4,2.7,6.1,6.1,6.1c3.4,0,6.1-2.7,6.1-6.1c0,0,0,0,0,0C212.5,9.6,209.8,6.9,206.4,6.9
	z"/>
<path class="st0" d="M0,39.7c0,22.2,18,40.1,40.1,40.1c22.2,0,40.1-18,40.1-40.1C80.2,19.8,65.7,3,46.1,0c0,0,0,52.7,0,52.9
	c0,8.3-6.3,16.2-14.6,16.2S16.3,63,16.3,55.5c-0.1-4.1,1.5-8,4.3-10.9c4-3.9,11.9-7.9,16.1-13.5c2.7-3.5,3.4-5.9,3.4-9.6
	c0.1-8.3-6.5-15.2-14.9-15.3c0,0,0,0,0,0c-3.2,0.1-6.4,0.9-9.2,2.5C11.7,11.2,8,14.9,5.5,19.3C1.9,25.5,0,32.5,0,39.7z"/>
</svg>
