<svg width="24" height="24" viewBox="0 0 24 24" fill="none" xmlns="http://www.w3.org/2000/svg">
<path d="M17 2V4M12 2V4M7 2L7 4" stroke="#667084" stroke-width="1.5" stroke-linecap="round" stroke-linejoin="round"/>
<path d="M3.5 10C3.5 6.70017 3.5 5.05025 4.52513 4.02513C5.55025 3 7.20017 3 10.5 3L13.5 3C16.7998 3 18.4497 3 19.4749 4.02513C20.5 5.05025 20.5 6.70017 20.5 10L20.5 15C20.5 18.2998 20.5 19.9497 19.4749 20.9749C18.4497 22 16.7998 22 13.5 22L10.5 22C7.20017 22 5.55025 22 4.52513 20.9749C3.5 19.9497 3.5 18.2998 3.5 15L3.5 10Z" stroke="#667084" stroke-width="2" stroke-linecap="round" stroke-linejoin="round"/>
<path d="M8 15H12M8 10L16 10" stroke="#667084" stroke-width="1.5" stroke-linecap="round"/>
</svg>
