<svg width="40" height="36" viewBox="0 0 40 36" fill="none" xmlns="http://www.w3.org/2000/svg">
<path d="M0 6C0 2.68629 2.68629 0 6 0H34C37.3137 0 40 2.68629 40 6V30C40 33.3137 37.3137 36 34 36H6C2.68629 36 0 33.3137 0 30V6Z" fill="white"/>
<path d="M17.7951 25.5001C18.3828 26.0187 19.1546 26.3334 20 26.3334C20.8454 26.3334 21.6172 26.0187 22.2048 25.5001M25 14.6667C25 13.3407 24.4732 12.0689 23.5355 11.1312C22.5978 10.1935 21.3261 9.66675 20 9.66675C18.6739 9.66675 17.4021 10.1935 16.4645 11.1312C15.5268 12.0689 15 13.3407 15 14.6667C15 17.2419 14.3504 19.005 13.6247 20.1713C13.0126 21.155 12.7065 21.6468 12.7178 21.784C12.7302 21.936 12.7624 21.9939 12.8848 22.0847C12.9954 22.1667 13.4938 22.1667 14.4907 22.1667H25.5093C26.5062 22.1667 27.0046 22.1667 27.1152 22.0847C27.2376 21.9939 27.2698 21.936 27.2822 21.784C27.2934 21.6468 26.9874 21.155 26.3753 20.1713C25.6496 19.005 25 17.2419 25 14.6667Z" stroke="#667085" stroke-width="1.66667" stroke-linecap="round" stroke-linejoin="round"/>
</svg>
