<svg width="44" height="45" viewBox="0 0 44 45" fill="none" xmlns="http://www.w3.org/2000/svg">
<g filter="url(#filter0_d_977_8220)">
<path d="M10 2H34C38.1421 2 41.5 5.35786 41.5 9.5V33.5C41.5 37.6421 38.1421 41 34 41H10C5.85786 41 2.5 37.6421 2.5 33.5V9.5C2.5 5.35786 5.85786 2 10 2Z" stroke="#EAECF0" shape-rendering="crispEdges"/>
<path d="M18.6666 24.8333L22 21.5M22 21.5L25.3333 24.8333M22 21.5V29M28.6666 25.4524C29.6845 24.6117 30.3333 23.3399 30.3333 21.9167C30.3333 19.3854 28.2813 17.3333 25.75 17.3333C25.5679 17.3333 25.3975 17.2383 25.3051 17.0814C24.2183 15.2374 22.212 14 19.9166 14C16.4648 14 13.6666 16.7982 13.6666 20.25C13.6666 21.9718 14.3628 23.5309 15.4891 24.6613" stroke="#5D6678" stroke-width="1.66667" stroke-linecap="round" stroke-linejoin="round"/>
</g>
<defs>
<filter id="filter0_d_977_8220" x="0" y="0.5" width="44" height="44" filterUnits="userSpaceOnUse" color-interpolation-filters="sRGB">
<feFlood flood-opacity="0" result="BackgroundImageFix"/>
<feColorMatrix in="SourceAlpha" type="matrix" values="0 0 0 0 0 0 0 0 0 0 0 0 0 0 0 0 0 0 127 0" result="hardAlpha"/>
<feOffset dy="1"/>
<feGaussianBlur stdDeviation="1"/>
<feComposite in2="hardAlpha" operator="out"/>
<feColorMatrix type="matrix" values="0 0 0 0 0.0627451 0 0 0 0 0.0941176 0 0 0 0 0.156863 0 0 0 0.05 0"/>
<feBlend mode="normal" in2="BackgroundImageFix" result="effect1_dropShadow_977_8220"/>
<feBlend mode="normal" in="SourceGraphic" in2="effect1_dropShadow_977_8220" result="shape"/>
</filter>
</defs>
</svg>
