<svg width="20" height="21" viewBox="0 0 20 21" fill="none" xmlns="http://www.w3.org/2000/svg">
<path d="M17.9533 9.70399C18.2067 10.0593 18.3334 10.2369 18.3334 10.4998C18.3334 10.7628 18.2067 10.9404 17.9533 11.2957C16.8149 12.892 13.9077 16.3332 10 16.3332C6.09234 16.3332 3.1851 12.892 2.04672 11.2957C1.79337 10.9404 1.66669 10.7628 1.66669 10.4998C1.66669 10.2369 1.79336 10.0593 2.04672 9.70399C3.1851 8.10771 6.09234 4.6665 10 4.6665C13.9077 4.6665 16.8149 8.1077 17.9533 9.70399Z" stroke="#48505E" stroke-width="1.5"/>
<path d="M12.5 10.5C12.5 9.11929 11.3807 8 10 8C8.61929 8 7.5 9.11929 7.5 10.5C7.5 11.8807 8.61929 13 10 13C11.3807 13 12.5 11.8807 12.5 10.5Z" stroke="#48505E" stroke-width="1.5"/>
</svg>
